<svg xmlns="http://www.w3.org/2000/svg" width="800" height="800" class="icon" viewBox="0 0 1024 1024">
  <defs>
    <linearGradient id="bgGradient" x1="0%" y1="0%" x2="100%" y2="100%">
      <stop offset="0%" style="stop-color:#00D4FF;stop-opacity:1" />
      <stop offset="50%" style="stop-color:#7C3AED;stop-opacity:1" />
      <stop offset="100%" style="stop-color:#FF6B35;stop-opacity:1" />
    </linearGradient>
  </defs>
  
  <!-- Background circle with site colors -->
  <path fill="url(#bgGradient)" d="M32 512a480 480 0 1 0 960 0 480 480 0 1 0-960 0Z"/>
  
  <!-- Game controller with currentColor (adapts to browser theme) -->
  <path fill="currentColor" d="M723.2 704c-25.6 0-51.2-12.8-70.4-32l-70.4-89.6H435.2l-38.4 64c-19.2 32-51.2 57.6-89.6 57.6-57.6 0-102.4-44.8-102.4-102.4V576l25.6-166.4c6.4-70.4 57.6-121.6 128-121.6 32 0 70.4 12.8 89.6 38.4 25.6 0 89.6-6.4 128 0 25.6-25.6 57.6-32 89.6-32 51.2 0 96 32 115.2 83.2v12.8l38.4 179.2c0 6.4 6.4 19.2 6.4 32 0 51.2-44.8 102.4-102.4 102.4z"/>
  
  <!-- Controller buttons with site colors -->
  <path fill="#00D4FF" d="M716.8 460.8c-12.8 0-19.2-12.8-19.2-19.2s6.4-19.2 19.2-19.2c12.8 0 19.2 12.8 19.2 19.2s-6.4 19.2-19.2 19.2zm-108.8 0c-12.8 0-19.2-12.8-19.2-19.2s6.4-19.2 19.2-19.2c12.8 0 19.2 12.8 19.2 19.2s-6.4 19.2-19.2 19.2zm51.2 57.6c-6.4 0-19.2-6.4-19.2-19.2s6.4-19.2 19.2-19.2 19.2 12.8 19.2 19.2-6.4 19.2-19.2 19.2zm0-115.2c-6.4 0-19.2-6.4-19.2-19.2s6.4-19.2 19.2-19.2 19.2 12.8 19.2 19.2-6.4 19.2-19.2 19.2z"/>
  
  <!-- D-pad with site colors -->
  <path fill="#FF6B35" d="M345.6 416h-51.2v32h51.2v51.2h32V448h51.2v-32h-51.2v-51.2h-32z"/>
</svg>