<svg xmlns="http://www.w3.org/2000/svg" aria-hidden="true" style="position:absolute;width:0;height:0;overflow:hidden"><defs><symbol id="clip" viewBox="0 0 32 32"><path d="M21.013 1.333c.903-.005 1.797.17 2.631.517s1.591.857 2.227 1.501c.636.644 1.139 1.408 1.479 2.248s.513 1.739.508 2.646a6.937 6.937 0 0 1-.539 2.64 6.868 6.868 0 0 1-1.501 2.224L15.066 23.974c-.774.759-1.739 1.32-2.862 1.343-1.14.023-2.156-.515-3.007-1.368-1-1.003-1.275-2.207-1.13-3.283a4.565 4.565 0 0 1 1.195-2.485l.007-.008 8.198-8.296a1.333 1.333 0 1 1 1.897 1.875l-8.182 8.28a1.92 1.92 0 0 0-.472.99c-.045.337.02.687.375 1.044.505.507.861.589 1.065.585.22-.004.571-.115 1.041-.574l10.746-10.86c.393-.388.706-.851.921-1.364s.328-1.065.332-1.623c.003-.558-.103-1.112-.312-1.627s-.517-.983-.905-1.376c-.388-.393-.848-.703-1.354-.913a4.09 4.09 0 0 0-4.523.948l-.011.012L7.263 16.225c-.605.595-1.088 1.306-1.42 2.094a6.552 6.552 0 0 0-.036 4.99c.301.743 1.024 1.741 1.664 2.389.658.666 1.789 1.527 2.502 1.823a6.283 6.283 0 0 0 6.961-1.469l.007-.007 10.106-10.227a1.333 1.333 0 1 1 1.897 1.875L18.851 27.907a9.026 9.026 0 0 1-2.922 2.028 8.945 8.945 0 0 1-6.978.051c-1.173-.487-2.594-1.619-3.377-2.412-.801-.811-1.766-2.096-2.239-3.262a9.211 9.211 0 0 1 .05-7.028 9.127 9.127 0 0 1 2.001-2.952L16.182 3.407a6.79 6.79 0 0 1 4.828-2.07z"/></symbol><symbol id="music" viewBox="0 0 32 32"><path d="M30 2H8v16H6a6 6 0 1 0 6 6V10h14v8h-2a6 6 0 1 0 6 6V2z"/></symbol><symbol id="location" viewBox="0 0 32 32"><path d="M16 0C9.373 0 4 5.373 4 12c0 2.61.856 5.004 2.277 6.965.026.047.029.099.059.145l8 12a2.001 2.001 0 0 0 3.328 0l8-12c.029-.045.033-.098.058-.145A11.81 11.81 0 0 0 27.999 12c0-6.627-5.373-12-12-12zm0 16a4 4 0 1 1 0-8 4 4 0 0 1 0 8z"/></symbol><symbol id="email" viewBox="0 0 32 32"><path d="M5 7h22l1 1v16l-1 1H5l-1-1V8l1-1zm1 3.261V23h20V10.26l-10 9.091L6 10.26zM24.413 9H7.586l8.413 7.649L24.412 9z"/></symbol><symbol id="youtube" viewBox="0 0 32 32"><path d="M12.781 20.137v-8.979c3.188 1.5 5.656 2.949 8.576 4.511-2.408 1.336-5.389 2.834-8.576 4.468zM30.546 6.693c-.55-.724-1.487-1.288-2.485-1.474-2.933-.557-21.227-.558-24.158 0-.8.15-1.512.512-2.124 1.075C-.8 8.687.008 21.523.63 23.602c.261.9.599 1.549 1.025 1.975.548.563 1.299.951 2.161 1.125 2.415.499 14.854.779 24.195.075a4.184 4.184 0 0 0 2.223-1.138c2.384-2.384 2.222-15.94.312-18.947z"/></symbol><symbol id="bird" viewBox="0 0 32 32"><path d="m29.555 9.168-2.904-1.936C25.658 4.173 22.834 2 19.501 2A7.502 7.502 0 0 0 12 9.5v2.149L.219 26.375A1 1 0 0 0 1 28h13c7.176-.008 12.992-5.824 13-12.999v-2.466l2.555-1.703a1 1 0 0 0 .003-1.662l-.004-.002zM13.768 17.64l-5 6a1 1 0 1 1-1.535-1.282l-.001.002 5-6a1 1 0 1 1 1.535 1.282l.001-.002zM20.5 10A1.5 1.5 0 1 1 22 8.5a1.5 1.5 0 0 1-1.5 1.5z"/></symbol><symbol id="energy" viewBox="0 0 32 32"><path d="M18.605 2.022zm0 0-2.256 11.856 8.174.027-11.127 16.072 2.257-13.043-8.174-.029zm.001-1.999c-.054 0-.108.002-.161.006-.353.028-.587.147-.864.333a2.024 2.024 0 0 0-.522.507L5.852 15.701c-.442.607-.508 1.407-.168 2.076s1.026 1.093 1.779 1.099l5.773.042-1.815 10.694a1.998 1.998 0 0 0 1.18 2.204c.257.11.527.163.793.163.629 0 1.145-.294 1.533-.825l11.22-16.072c.442-.607.507-1.408.168-2.076s-1.026-1.093-1.779-1.098l-5.773-.01 1.796-9.402A2.002 2.002 0 0 0 18.677.027l-.071-.001z"/></symbol><symbol id="gamepad" viewBox="0 0 32 32"><path d="m14.223 8.179-.669-.474a5.653 5.653 0 0 0-3.267-1.039H9.47c-.539 0-1.083.034-1.591.214-3.177 1.127-5.362 5.246-5.204 14.589.032 1.883.472 3.963 2.171 4.775a4.27 4.27 0 0 0 1.857.421c.848 0 1.521-.242 2.041-.582.545-.357 1.025-.821 1.505-1.286.593-.574 1.185-1.147 1.9-1.517a5.473 5.473 0 0 1 2.52-.615h2.664c.877 0 1.741.211 2.52.615.715.371 1.307.944 1.9 1.517.48.464.96.928 1.505 1.286.52.341 1.193.582 2.041.582.707 0 1.327-.168 1.857-.421 1.699-.812 2.139-2.893 2.171-4.775.158-9.343-2.027-13.463-5.204-14.589-.508-.18-1.052-.214-1.591-.214h-.817c-1.17 0-2.311.363-3.266 1.039l-.669.474a3.077 3.077 0 0 1-3.555 0zM22.333 12a1 1 0 1 1 0 2 1 1 0 0 1 0-2zM10 12.333a1 1 0 0 1 1 1v1h1a1 1 0 0 1 0 2h-1v1a1 1 0 0 1-2 0v-1H8a1 1 0 0 1 0-2h1v-1a1 1 0 0 1 1-1zM25.333 15a1 1 0 1 1-2 0 1 1 0 0 1 2 0zm-5 1a1 1 0 1 0 0-2 1 1 0 0 0 0 2zm3 1a1 1 0 1 0-2 0 1 1 0 0 0 2 0z"/></symbol><symbol id="play" viewBox="0 0 32 32"><path d="M27.404 11.763 9.146.65c-3.057-1.86-6.861.493-6.861 4.236v22.226c0 3.748 3.804 6.096 6.861 4.236L27.404 20.24c3.08-1.874 3.08-6.604 0-8.478z"/></symbol></defs></svg>